<?xml version="1.0" encoding="UTF-8"?>
<svg width="36px" height="36px" viewBox="0 0 36 36" version="1.1" xmlns="http://www.w3.org/2000/svg" xmlns:xlink="http://www.w3.org/1999/xlink">
    <title>一键美化</title>
    <defs>
        <filter x="-3.5%" y="-29.2%" width="106.9%" height="158.3%" filterUnits="objectBoundingBox" id="filter-1">
            <feOffset dx="0" dy="0" in="SourceAlpha" result="shadowOffsetOuter1"></feOffset>
            <feGaussianBlur stdDeviation="2.5" in="shadowOffsetOuter1" result="shadowBlurOuter1"></feGaussianBlur>
            <feColorMatrix values="0 0 0 0 0   0 0 0 0 0   0 0 0 0 0  0 0 0 0.15 0" type="matrix" in="shadowBlurOuter1" result="shadowMatrixOuter1"></feColorMatrix>
            <feMerge>
                <feMergeNode in="shadowMatrixOuter1"></feMergeNode>
                <feMergeNode in="SourceGraphic"></feMergeNode>
            </feMerge>
        </filter>
    </defs>
    <g id="页面-1" stroke="none" stroke-width="1" fill="none" fill-rule="evenodd">
        <g id="状态" transform="translate(-252.000000, -1808.000000)">
            <g id="编组-16备份" transform="translate(74.000000, 1702.000000)">
                <g id="编组-3" transform="translate(45.000000, 106.000000)">
                    <g id="编组-9备份-2" filter="url(#filter-1)" transform="translate(125.000000, 0.000000)">
                        <g id="编组-5" transform="translate(8.000000, 0.000000)">
                            <g id="一键美化" transform="translate(8.000000, 8.000000)">
                                <rect id="蒙版" x="0" y="0" width="20" height="20"></rect>
                                <path d="M9.10627514,2.21196295 C9.77020861,1.71649968 10.7100854,1.85307177 11.2055486,2.51700524 C11.4028447,2.78138703 11.5074844,3.10343485 11.5032682,3.43329193 L11.5032682,3.43329193 L11.480717,5.19762122 C11.4786137,5.36217319 11.5576158,5.51722356 11.6919774,5.6122432 L11.6919774,5.6122432 L13.1326051,6.6310456 C13.8089854,7.10937728 13.9695355,8.04545629 13.4912038,8.72183659 C13.3007296,8.99117477 13.0267794,9.19021126 12.7117638,9.2881329 L12.7117638,9.2881329 L11.314,9.72102978 L17.5028886,15.9099026 C17.6981507,16.1051647 17.6981507,16.4217472 17.5028886,16.6170094 C17.3076264,16.8122715 16.991044,16.8122715 16.7957818,16.6170094 L10.607,10.4290298 L10.1740121,11.8258846 C9.94256982,12.5704385 9.18429556,13.0057267 8.43635204,12.8493461 L8.29636484,12.8130222 C7.98134925,12.7151005 7.70739902,12.516064 7.51692483,12.2467259 L7.51692483,12.2467259 L6.49812244,10.8060982 C6.40310279,10.6717366 6.24805242,10.5927345 6.08350045,10.5948377 L6.08350045,10.5948377 L4.31917116,10.617389 C3.4908117,10.6279769 2.81071049,9.96504205 2.80012259,9.13668259 C2.79590644,8.80682551 2.90054611,8.4847777 3.09784218,8.22039591 L3.09784218,8.22039591 L4.15313326,6.80627882 C4.25155606,6.67438975 4.27877833,6.50251508 4.22592865,6.34666681 L4.22592865,6.34666681 L3.65927341,4.67565866 C3.39322657,3.89111383 3.81355223,3.03944101 4.59809706,2.77339417 C4.91050692,2.66745293 5.24912803,2.66745293 5.56153789,2.77339417 L5.56153789,2.77339417 L7.23254604,3.34004942 C7.38839432,3.3928991 7.56026898,3.36567682 7.69215805,3.26725403 L7.69215805,3.26725403 Z M5.00719958,12.5 L5.75619189,13.7825211 C5.77789762,13.8196884 5.80883149,13.8506223 5.84599883,13.872328 L5.84599883,13.872328 L7.12851992,14.6213203 L5.84599883,15.3703127 C5.80883149,15.3920184 5.77789762,15.4229523 5.75619189,15.4601196 L5.75619189,15.4601196 L5.00719958,16.7426407 L4.25820726,15.4601196 C4.23650154,15.4229523 4.20556766,15.3920184 4.16840032,15.3703127 L4.16840032,15.3703127 L2.88587923,14.6213203 L4.16840032,13.872328 C4.20556766,13.8506223 4.23650154,13.8196884 4.25820726,13.7825211 L4.25820726,13.7825211 L5.00719958,12.5 Z M10.9036462,13.7868603 L11.261587,14.3997727 C11.2832928,14.43694 11.3142266,14.4678739 11.351394,14.4895796 L11.9643064,14.8475205 L11.351394,15.2054613 C11.3142266,15.227167 11.2832928,15.2581009 11.261587,15.2952682 L10.9036462,15.9081806 L10.5457053,15.2952682 C10.5239996,15.2581009 10.4930657,15.227167 10.4558984,15.2054613 L9.84298602,14.8475205 L10.4558984,14.4895796 C10.4930657,14.4678739 10.5239996,14.43694 10.5457053,14.3997727 L10.9036462,13.7868603 Z M10.40411,3.11508231 C10.2389556,2.89377115 9.92566336,2.84824712 9.70435221,3.01340154 L9.70435221,3.01340154 L8.29023512,4.06869263 C7.89456791,4.36396101 7.37894392,4.44562783 6.9113991,4.2870788 L6.9113991,4.2870788 L5.24039095,3.72042355 C5.13625432,3.6851098 5.02338062,3.6851098 4.919244,3.72042355 L4.919244,3.72042355 L4.83671619,3.75691579 C4.6294184,3.87191646 4.52747409,4.12205399 4.60630278,4.35451171 L4.60630278,4.35451171 L5.17295803,6.02551986 C5.33150706,6.49306469 5.24984025,7.00868868 4.95457186,7.40435588 L4.95457186,7.40435588 L3.89928078,8.81847297 C3.83351542,8.90660024 3.79863553,9.01394951 3.80004091,9.12390187 C3.80357021,9.40002169 4.03027062,9.62099997 4.30639044,9.61747067 L4.30639044,9.61747067 L6.07071973,9.59491942 C6.56437563,9.58860963 7.02952675,9.82561596 7.31458567,10.2287008 L7.31458567,10.2287008 L8.33338807,11.6693284 C8.39687946,11.7591078 8.48819621,11.8254533 8.59320141,11.8580939 C8.85689757,11.940063 9.13711468,11.7927442 9.21908384,11.529048 L9.21908384,11.529048 L9.74284406,9.84410243 C9.88939115,9.37265794 10.2585372,9.00351192 10.7299817,8.85696483 L10.7299817,8.85696483 L12.4149273,8.3332046 C12.5199324,8.30056406 12.6112492,8.23421856 12.6747406,8.14443916 C12.8341845,7.91897907 12.7806678,7.60695273 12.5552077,7.44750884 L12.5552077,7.44750884 L11.11458,6.42870644 C10.7114952,6.14364751 10.4744889,5.67849639 10.4807987,5.1848405 L10.4807987,5.1848405 L10.5033499,3.4205112 C10.5047553,3.31055884 10.4698754,3.20320957 10.40411,3.11508231 Z M16.5071996,6.37867966 L17.2561919,7.66120075 C17.2778976,7.69836808 17.3088315,7.72930196 17.3459988,7.75100768 L17.3459988,7.75100768 L18.6285199,8.5 L17.3459988,9.24899232 C17.3088315,9.27069804 17.2778976,9.30163192 17.2561919,9.33879925 L17.2561919,9.33879925 L16.5071996,10.6213203 L15.7582073,9.33879925 C15.7365015,9.30163192 15.7055677,9.27069804 15.6684003,9.24899232 L15.6684003,9.24899232 L14.3858792,8.5 L15.6684003,7.75100768 C15.7055677,7.72930196 15.7365015,7.69836808 15.7582073,7.66120075 L15.7582073,7.66120075 L16.5071996,6.37867966 Z" id="形状结合" fill="#FFFFFF"></path>
                            </g>
                        </g>
                    </g>
                </g>
            </g>
        </g>
    </g>
</svg>