<?xml version="1.0" encoding="UTF-8"?>
<svg width="15px" height="15px" viewBox="0 0 15 15" version="1.1" xmlns="http://www.w3.org/2000/svg" xmlns:xlink="http://www.w3.org/1999/xlink">
    <title>路径@2x</title>
    <g id="页面-1" stroke="none" stroke-width="1" fill="none" fill-rule="evenodd">
        <g id="缺省页" transform="translate(-1937.000000, -212.000000)" fill="#FFFFFF" fill-rule="nonzero">
            <g id="编组-4备份-4" transform="translate(1140.000000, 145.000000)">
                <g id="编组-25" transform="translate(712.000000, 39.000000)">
                    <g id="发送至邮箱备份" transform="translate(16.000000, 17.000000)">
                        <g id="编组-18" transform="translate(69.000000, 6.500000)">
                            <path d="M7.49751365,4.5 C6.43714068,4.49769805 5.38850348,4.72190168 4.42178454,5.15762337 L4.87847403,6.17186475 C7.46197506,5.01056333 10.5016628,5.68835972 12.3470653,7.83722796 C14.1924677,9.98609619 14.4032698,13.093314 12.8650115,15.4717422 C11.3267531,17.8501704 8.4064644,18.9323136 5.68978681,18.1305957 C2.97310922,17.3288779 1.10824496,14.8345899 1.10776722,12.0020658 C1.11091232,10.4153519 1.70210121,8.88612613 2.76708419,7.70991776 L4.04553065,9.09073849 C2.68011996,10.7105902 2.62426171,13.0618535 3.91121079,14.7447174 C5.19815986,16.4275814 7.48192843,16.9896191 9.40288823,16.0962246 C11.323848,15.2028302 12.3655616,13.0941869 11.9078509,11.0256632 C11.4501401,8.95713949 9.61605764,7.48484441 7.49751365,7.48530023 C7.34249569,7.4853104 7.187579,7.49322223 7.03336656,7.50900492 L7.14647356,8.61540163 C7.26311189,8.60355722 7.38027548,8.59763085 7.49751365,8.59764531 C9.08228607,8.59715103 10.4579499,9.68989773 10.8160465,11.2336932 C11.174143,12.7774887 10.4200175,14.3642653 8.99685909,15.0614961 C7.57370067,15.758727 5.85768938,15.3821149 4.85730143,14.1529895 C3.85691347,12.9238641 3.83657898,11.1671172 4.80824825,9.91516474 L7.08912103,12.3797429 L7.90590627,11.6242112 L1.97719959,5.21914905 L1.16041436,5.97468074 L2.00880563,6.8913511 C-0.411050242,9.49245288 -0.673863795,13.4345612 1.37928888,16.333875 C3.43244156,19.2331887 7.23816273,20.2941183 10.4951248,18.8751174 C13.7520869,17.4561165 15.5665594,13.9465676 14.841327,10.4687024 C14.1160947,6.99083719 11.0501656,4.49900326 7.49751365,4.5 L7.49751365,4.5 Z" id="路径"></path>
                        </g>
                    </g>
                </g>
            </g>
        </g>
    </g>
</svg>