<?xml version="1.0" encoding="UTF-8"?>
<svg width="36px" height="36px" viewBox="0 0 36 36" version="1.1" xmlns="http://www.w3.org/2000/svg" xmlns:xlink="http://www.w3.org/1999/xlink">
    <title>裁切</title>
    <defs>
        <filter x="-3.5%" y="-29.2%" width="106.9%" height="158.3%" filterUnits="objectBoundingBox" id="filter-1">
            <feOffset dx="0" dy="0" in="SourceAlpha" result="shadowOffsetOuter1"></feOffset>
            <feGaussianBlur stdDeviation="2.5" in="shadowOffsetOuter1" result="shadowBlurOuter1"></feGaussianBlur>
            <feColorMatrix values="0 0 0 0 0   0 0 0 0 0   0 0 0 0 0  0 0 0 0.15 0" type="matrix" in="shadowBlurOuter1" result="shadowMatrixOuter1"></feColorMatrix>
            <feMerge>
                <feMergeNode in="shadowMatrixOuter1"></feMergeNode>
                <feMergeNode in="SourceGraphic"></feMergeNode>
            </feMerge>
        </filter>
    </defs>
    <g id="页面-1" stroke="none" stroke-width="1" fill="none" fill-rule="evenodd">
        <g id="状态" transform="translate(-385.000000, -1980.000000)">
            <g id="编组-16备份" transform="translate(74.000000, 1702.000000)">
                <g id="编组-3" transform="translate(45.000000, 106.000000)">
                    <g id="编组-9备份-3" filter="url(#filter-1)" transform="translate(125.000000, 172.000000)">
                        <g id="编组-4" transform="translate(141.000000, 0.000000)">
                            <g id="裁切" transform="translate(8.000000, 8.000000)">
                                <rect id="蒙版" x="0" y="0" width="20" height="20"></rect>
                                <path d="M5.5,3 C5.74545989,3 5.94960837,3.17687516 5.99194433,3.41012437 L6,3.5 L6,4.999 L13.5,5 C14.2796961,5 14.9204487,5.59488808 14.9931334,6.35553999 L15,6.5 L14.999,14 L16.5,14 C16.7761424,14 17,14.2238576 17,14.5 C17,14.7454599 16.8231248,14.9496084 16.5898756,14.9919443 L16.5,15 L14.999,15 L15,16.5 C15,16.7761424 14.7761424,17 14.5,17 C14.2545401,17 14.0503916,16.8231248 14.0080557,16.5898756 L14,16.5 L13.999,15 L6.5,15 C5.72030388,15 5.07955132,14.4051119 5.00686658,13.64446 L5,13.5 L5,5.999 L3.5,6 C3.22385763,6 3,5.77614237 3,5.5 C3,5.25454011 3.17687516,5.05039163 3.41012437,5.00805567 L3.5,5 L5,4.999 L5,3.5 C5,3.22385763 5.22385763,3 5.5,3 Z M6,5.999 L6,13.5 C6,13.7454599 6.17687516,13.9496084 6.41012437,13.9919443 L6.5,14 L13.999,14 L14,6.5 C14,6.25454011 13.8231248,6.05039163 13.5898756,6.00805567 L13.5,6 L6,5.999 Z" id="形状结合" fill="#3790FA" fill-rule="nonzero"></path>
                            </g>
                        </g>
                    </g>
                </g>
            </g>
        </g>
    </g>
</svg>