<?xml version="1.0" encoding="UTF-8"?>
<svg width="101px" height="91px" viewBox="0 0 101 91" version="1.1" xmlns="http://www.w3.org/2000/svg" xmlns:xlink="http://www.w3.org/1999/xlink">
    <title>编组 7@2x</title>
    <defs>
        <linearGradient x1="50%" y1="0%" x2="50%" y2="100%" id="linearGradient-1">
            <stop stop-color="#C7CBC6" offset="0%"></stop>
            <stop stop-color="#C7CBC6" stop-opacity="0" offset="100%"></stop>
        </linearGradient>
    </defs>
    <g id="页面-1" stroke="none" stroke-width="1" fill="none" fill-rule="evenodd">
        <g id="缺省页" transform="translate(-530.000000, -408.000000)">
            <g id="编组-4备份-4" transform="translate(100.000000, 145.000000)">
                <g id="编组-4" transform="translate(347.000000, 263.593023)">
                    <g id="编组-7" transform="translate(83.000000, 0.000000)">
                        <g id="编组-16" opacity="0.8">
                            <path d="M22.3837209,0 L67.8255814,0 L67.8255814,0 L85.6162791,17.7906977 L85.6162791,69.0930233 C85.6162791,73.5113013 82.0345571,77.0930233 77.6162791,77.0930233 L22.3837209,77.0930233 C17.9654429,77.0930233 14.3837209,73.5113013 14.3837209,69.0930233 L14.3837209,8 C14.3837209,3.581722 17.9654429,-1.85291076e-15 22.3837209,0 Z" id="矩形" fill="#FFFDE6"></path>
                            <polygon id="矩形备份-13" fill="#BEBCAB" points="26.244186 62.7848837 52.0697674 62.7848837 52.0697674 65.75 26.244186 65.75"></polygon>
                            <polygon id="矩形备份-15" fill="#BEBCAB" points="26.244186 41.7848837 52.0697674 41.7848837 52.0697674 44.75 26.244186 44.75"></polygon>
                            <polygon id="矩形备份-16" fill="#BEBCAB" points="51.244186 17.7848837 64.0697674 17.7848837 64.0697674 20.75 51.244186 20.75"></polygon>
                            <polygon id="矩形备份-14" fill="#BEBCAB" points="26.244186 48.7848837 73.755814 48.7848837 73.755814 51.75 26.244186 51.75"></polygon>
                            <polygon id="矩形备份-17" fill="#BEBCAB" points="51.244186 24.7848837 73.755814 24.7848837 73.755814 27.75 51.244186 27.75"></polygon>
                            <polygon id="矩形备份-14" fill="#BEBCAB" points="26.244186 55.7848837 73.755814 55.7848837 73.755814 58.75 26.244186 58.75"></polygon>
                            <polygon id="矩形" fill="#D7D1B1" points="67.8255814 0 85.6162791 17.7906977 67.8255814 17.7906977"></polygon>
                            <g id="编组-3" transform="translate(0.000000, 36.906977)">
                                <path d="M0,0 L100.813953,0 L100.813953,45.372093 C100.813953,49.790371 97.2322315,53.372093 92.8139535,53.372093 L8,53.372093 C3.581722,53.372093 4.46530217e-15,49.790371 0,45.372093 L0,0 L0,0 Z" id="矩形" fill-opacity="0.9" fill="url(#linearGradient-1)"></path>
                                <polygon id="矩形" fill="#C7CBC6" points="0 0 100.813953 0 100.813953 4.15116279 0 4.15116279"></polygon>
                            </g>
                        </g>
                        <path d="M34,13.4069767 C38.9705627,13.4069767 43,17.436414 43,22.4069767 C43,27.3775395 38.9705627,31.4069767 34,31.4069767 C29.0294373,31.4069767 25,27.3775395 25,22.4069767 C25,17.436414 29.0294373,13.4069767 34,13.4069767 Z M36.8137085,18.1643361 L33.9852814,20.991349 L31.1568542,18.1643361 L29.7426407,19.5785496 L32.5710678,22.4055625 L29.7426407,25.2354039 L31.1568542,26.6496174 L33.9845743,23.8204832 L36.8137085,26.6496174 L38.2279221,25.2354039 L35.3987878,22.4062696 L38.2279221,19.5785496 L36.8137085,18.1643361 Z" id="形状结合" fill="#F8A34C" fill-rule="nonzero"></path>
                    </g>
                </g>
            </g>
        </g>
    </g>
</svg>