<?xml version="1.0" encoding="UTF-8"?>
<svg width="36px" height="36px" viewBox="0 0 36 36" version="1.1" xmlns="http://www.w3.org/2000/svg" xmlns:xlink="http://www.w3.org/1999/xlink">
    <title>镜像</title>
    <defs>
        <filter x="-3.5%" y="-29.2%" width="106.9%" height="158.3%" filterUnits="objectBoundingBox" id="filter-1">
            <feOffset dx="0" dy="0" in="SourceAlpha" result="shadowOffsetOuter1"></feOffset>
            <feGaussianBlur stdDeviation="2.5" in="shadowOffsetOuter1" result="shadowBlurOuter1"></feGaussianBlur>
            <feColorMatrix values="0 0 0 0 0   0 0 0 0 0   0 0 0 0 0  0 0 0 0.15 0" type="matrix" in="shadowBlurOuter1" result="shadowMatrixOuter1"></feColorMatrix>
            <feMerge>
                <feMergeNode in="shadowMatrixOuter1"></feMergeNode>
                <feMergeNode in="SourceGraphic"></feMergeNode>
            </feMerge>
        </filter>
    </defs>
    <g id="页面-1" stroke="none" stroke-width="1" fill="none" fill-rule="evenodd">
        <g id="状态" transform="translate(-465.000000, -1980.000000)">
            <g id="编组-16备份" transform="translate(74.000000, 1702.000000)">
                <g id="编组-3" transform="translate(45.000000, 106.000000)">
                    <g id="编组-9备份-3" filter="url(#filter-1)" transform="translate(125.000000, 172.000000)">
                        <g id="编组-4备份-6" transform="translate(221.000000, 0.000000)">
                            <g id="镜像" transform="translate(8.000000, 8.000000)">
                                <rect id="蒙版" x="0" y="0" width="20" height="20"></rect>
                                <path d="M8.99972245,6.86825855 C9.30927993,7.0468494 9.5,7.37706406 9.5,7.73444414 L9.5,16 C9.5,16.5522847 9.05228475,17 8.5,17 L3.73141008,17 C3.17912533,17 2.73141008,16.5522847 2.73141008,16 C2.73141008,15.824572 2.77755918,15.6522307 2.86522449,15.5002775 L7.63381441,7.23472168 C7.9098035,6.75634059 8.52134136,6.59226946 8.99972245,6.86825855 Z M11.0002775,6.86825855 C11.4786586,6.59226946 12.0901965,6.75634059 12.3661856,7.23472168 L12.3661856,7.23472168 L17.1347755,15.5002775 C17.2224408,15.6522307 17.2685899,15.824572 17.2685899,16 C17.2685899,16.5522847 16.8208747,17 16.2685899,17 L16.2685899,17 L11.5,17 C10.9477153,17 10.5,16.5522847 10.5,16 L10.5,16 L10.5,7.73444414 C10.5,7.37706406 10.6907201,7.0468494 11.0002775,6.86825855 Z M8.5,7.73444414 L3.73141008,16 L8.5,16 L8.5,7.73444414 Z M11.5,7.73444414 L11.5,16 L16.2685899,16 L11.5,7.73444414 Z M14.5911033,3.03017572 L14.6727247,3.06865243 L16.6072617,4.20045275 C16.8318581,4.24954524 17,4.44959697 17,4.68892036 L16.9980692,4.71288342 C16.9992225,4.85712741 16.9378557,4.9985482 16.8247299,5.09594789 L16.7507294,5.14877559 L14.6727247,6.36604255 C14.5960708,6.41094538 14.5088374,6.43461444 14.42,6.43461444 C14.1745401,6.43461444 13.9703916,6.25773928 13.9280557,6.02449008 L13.92,5.93461444 L13.919,5.188 L6.078,5.188 L6.07808521,5.93461444 C6.07808521,6.21075682 5.85422758,6.43461444 5.57808521,6.43461444 C5.48924777,6.43461444 5.40201441,6.41094538 5.32536047,6.36604255 L3.2473558,5.14877559 C3.00908464,5.00919958 2.92907641,4.70289392 3.06865243,4.46462276 C3.1119348,4.39073513 3.17346817,4.32920176 3.2473558,4.28591938 L5.32536047,3.06865243 C5.56363164,2.92907641 5.8699373,3.00908464 6.00951331,3.2473558 C6.05441615,3.32400973 6.07808521,3.4112431 6.07808521,3.50008053 L6.078,4.188 L13.919,4.188 L13.92,3.50008053 C13.92,3.44085558 13.9305196,3.38234354 13.9508372,3.32720379 L13.9885719,3.2473558 C14.1126395,3.03555921 14.368444,2.94880988 14.5911033,3.03017572 Z" id="形状结合" fill="#3790FA"></path>
                            </g>
                        </g>
                    </g>
                </g>
            </g>
        </g>
    </g>
</svg>