<?xml version="1.0" encoding="UTF-8"?>
<svg width="36px" height="36px" viewBox="0 0 36 36" version="1.1" xmlns="http://www.w3.org/2000/svg" xmlns:xlink="http://www.w3.org/1999/xlink">
    <title>文字识别@2x</title>
    <defs>
        <filter x="-2.5%" y="-29.2%" width="105.0%" height="158.3%" filterUnits="objectBoundingBox" id="filter-1">
            <feOffset dx="0" dy="0" in="SourceAlpha" result="shadowOffsetOuter1"></feOffset>
            <feGaussianBlur stdDeviation="2.5" in="shadowOffsetOuter1" result="shadowBlurOuter1"></feGaussianBlur>
            <feColorMatrix values="0 0 0 0 0   0 0 0 0 0   0 0 0 0 0  0 0 0 0.15 0" type="matrix" in="shadowBlurOuter1" result="shadowMatrixOuter1"></feColorMatrix>
            <feMerge>
                <feMergeNode in="shadowMatrixOuter1"></feMergeNode>
                <feMergeNode in="SourceGraphic"></feMergeNode>
            </feMerge>
        </filter>
    </defs>
    <g id="页面-1" stroke="none" stroke-width="1" fill="none" fill-rule="evenodd">
        <g id="文本超出、另存为" transform="translate(-367.000000, -774.000000)">
            <g id="编组-4备份-13" transform="translate(100.000000, 150.000000)">
                <g id="编组-9" filter="url(#filter-1)" transform="translate(179.000000, 624.000000)">
                    <g id="编组-5备份-2" transform="translate(88.000000, 0.000000)">
                        <g id="文字识别" transform="translate(8.000000, 8.000000)">
                            <rect id="矩形" x="0" y="0" width="20" height="20"></rect>
                            <path d="M3.5,12 C3.77614237,12 4,12.2238576 4,12.5 L4,12.5 L4,15.5 L4.00805567,15.5898756 C4.05039163,15.8231248 4.25454011,16 4.5,16 L4.5,16 L7.5,16 L7.58987563,16.0080557 C7.82312484,16.0503916 8,16.2545401 8,16.5 C8,16.7761424 7.77614237,17 7.5,17 L7.5,17 L4.5,17 L4.35553999,16.9931334 C3.59488808,16.9204487 3,16.2796961 3,15.5 L3,15.5 L3,12.5 L3.00805567,12.4101244 C3.05039163,12.1768752 3.25454011,12 3.5,12 Z M16.5,12 C16.7454599,12 16.9496084,12.1768752 16.9919443,12.4101244 L17,12.5 L17,15.5 C17,16.2796961 16.4051119,16.9204487 15.64446,16.9931334 L15.5,17 L12.5,17 C12.2238576,17 12,16.7761424 12,16.5 C12,16.2545401 12.1768752,16.0503916 12.4101244,16.0080557 L12.5,16 L15.5,16 C15.7454599,16 15.9496084,15.8231248 15.9919443,15.5898756 L16,15.5 L16,12.5 C16,12.2238576 16.2238576,12 16.5,12 Z M12.587741,7 C12.8518007,7 13.1051421,7.10444227 13.2924828,7.29053616 L13.713035,7.70828925 C13.908295,7.90224963 13.9093485,8.21777506 13.7153882,8.41303503 C13.7149973,8.41342853 13.7146058,8.41382137 13.7142136,8.41421356 C13.5206217,8.60780543 13.2067473,8.60780543 13.0131554,8.41421356 L13.0101571,8.41118937 L12.6059725,8 L10.4993653,8 L10.499,13 L11,13 C11.2761424,13 11.5,13.2238576 11.5,13.5 C11.5,13.7761424 11.2761424,14 11,14 L9,14 C8.72385763,14 8.5,13.7761424 8.5,13.5 C8.5,13.2238576 8.72385763,13 9,13 L9.499,13 L9.49936526,8 L7.42772827,8 L7.01131559,8.4148702 C6.81558524,8.60987553 6.49892157,8.60958174 6.30355339,8.41421356 C6.10800306,8.21866323 6.10720304,7.90186112 6.30176324,7.70532564 L6.70650618,7.29647353 C6.89432458,7.10674829 7.15020816,7 7.41717523,7 L12.587741,7 Z M7.5,3 C7.77614237,3 8,3.22385763 8,3.5 C8,3.74545989 7.82312484,3.94960837 7.58987563,3.99194433 L7.5,4 L4.5,4 C4.25454011,4 4.05039163,4.17687516 4.00805567,4.41012437 L4,4.5 L4,7.5 C4,7.77614237 3.77614237,8 3.5,8 C3.25454011,8 3.05039163,7.82312484 3.00805567,7.58987563 L3,7.5 L3,4.5 C3,3.72030388 3.59488808,3.07955132 4.35553999,3.00686658 L4.5,3 L7.5,3 Z M15.5,3 L15.64446,3.00686658 C16.4051119,3.07955132 17,3.72030388 17,4.5 L17,4.5 L17,7.5 L16.9919443,7.58987563 C16.9496084,7.82312484 16.7454599,8 16.5,8 C16.2238576,8 16,7.77614237 16,7.5 L16,7.5 L16,4.5 L15.9919443,4.41012437 C15.9496084,4.17687516 15.7454599,4 15.5,4 L15.5,4 L12.5,4 L12.4101244,3.99194433 C12.1768752,3.94960837 12,3.74545989 12,3.5 C12,3.22385763 12.2238576,3 12.5,3 L12.5,3 L15.5,3 Z" id="形状结合" fill="#262626"></path>
                        </g>
                    </g>
                </g>
            </g>
        </g>
    </g>
</svg>