<?xml version="1.0" encoding="UTF-8"?>
<svg width="36px" height="36px" viewBox="0 0 36 36" version="1.1" xmlns="http://www.w3.org/2000/svg" xmlns:xlink="http://www.w3.org/1999/xlink">
    <title>智能纠偏</title>
    <defs>
        <filter x="-3.5%" y="-29.2%" width="106.9%" height="158.3%" filterUnits="objectBoundingBox" id="filter-1">
            <feOffset dx="0" dy="0" in="SourceAlpha" result="shadowOffsetOuter1"></feOffset>
            <feGaussianBlur stdDeviation="2.5" in="shadowOffsetOuter1" result="shadowBlurOuter1"></feGaussianBlur>
            <feColorMatrix values="0 0 0 0 0   0 0 0 0 0   0 0 0 0 0  0 0 0 0.15 0" type="matrix" in="shadowBlurOuter1" result="shadowMatrixOuter1"></feColorMatrix>
            <feMerge>
                <feMergeNode in="shadowMatrixOuter1"></feMergeNode>
                <feMergeNode in="SourceGraphic"></feMergeNode>
            </feMerge>
        </filter>
    </defs>
    <g id="页面-1" stroke="none" stroke-width="1" fill="none" fill-rule="evenodd">
        <g id="状态" transform="translate(-292.000000, -1980.000000)">
            <g id="编组-16备份" transform="translate(74.000000, 1702.000000)">
                <g id="编组-3" transform="translate(45.000000, 106.000000)">
                    <g id="编组-9备份-3" filter="url(#filter-1)" transform="translate(125.000000, 172.000000)">
                        <g id="编组-5备份" transform="translate(48.000000, 0.000000)">
                            <g id="智能纠偏" transform="translate(8.000000, 8.000000)">
                                <rect id="矩形" x="0" y="0" width="20" height="20"></rect>
                                <path d="M13,3 C13.8284271,3 14.5,3.67157288 14.5,4.5 L14.5,4.5 L14.5,15.5 C14.5,16.3284271 13.8284271,17 13,17 L13,17 L7,17 C6.17157288,17 5.5,16.3284271 5.5,15.5 L5.5,15.5 L5.5,4.5 C5.5,3.67157288 6.17157288,3 7,3 L7,3 Z M13,4 L7,4 C6.72385763,4 6.5,4.22385763 6.5,4.5 L6.5,4.5 L6.5,15.5 C6.5,15.7761424 6.72385763,16 7,16 L7,16 L13,16 C13.2761424,16 13.5,15.7761424 13.5,15.5 L13.5,15.5 L13.5,4.5 C13.5,4.22385763 13.2761424,4 13,4 L13,4 Z M4.99897185,5.49900066 L5.00059259,6.49900066 L4.38278222,6.5 C4.15863854,6.5 3.96567403,6.64836008 3.90359354,6.85706256 L3.88664328,6.93798263 L3.13664328,12.9379826 C3.13407173,12.958555 3.13278222,12.9792675 3.13278222,13 C3.13278222,13.2454599 3.30965738,13.4496084 3.5426497,13.4919444 L3.63241645,13.5000001 L4.99941645,13.4990007 L5.00014798,14.4990007 L3.63278222,14.5 C2.80435509,14.5 2.13278222,13.8284271 2.13278222,13 L2.13568082,12.9067938 L2.1443654,12.8139479 L2.8943654,6.8139479 C2.98233141,6.11021987 3.54866069,5.57114487 4.24176486,5.50650998 L4.38197185,5.50000066 L4.99897185,5.49900066 Z M15.000592,5.49900066 L15.6172178,5.5 C16.3264224,5.5 16.9315791,5.99509199 17.0817672,6.67548945 L17.1056346,6.8139479 L17.8556346,12.8139479 C17.9583883,13.6359778 17.3752998,14.3856631 16.5532699,14.4884168 L16.4603782,14.4971014 L16.3668521,14.4999999 L14.9994166,14.4990007 L15.0001479,13.4990007 L16.3672178,13.5 C16.3879503,13.5 16.4086627,13.4987105 16.4292351,13.4961389 C16.6727996,13.4656934 16.8534329,13.2648626 16.866511,13.0281634 L16.8633567,12.9379826 L16.1133567,6.93798263 C16.0855551,6.71556982 15.9144064,6.54249721 15.6990467,6.50678201 L15.616408,6.49999934 L14.9989724,6.49900066 L15.000592,5.49900066 Z" id="形状结合" fill="#3790FA" fill-rule="nonzero"></path>
                            </g>
                        </g>
                    </g>
                </g>
            </g>
        </g>
    </g>
</svg>