<?xml version="1.0" encoding="UTF-8"?>
<svg width="36px" height="36px" viewBox="0 0 36 36" version="1.1" xmlns="http://www.w3.org/2000/svg" xmlns:xlink="http://www.w3.org/1999/xlink">
    <title>旋转@2x</title>
    <defs>
        <filter x="-2.5%" y="-29.2%" width="105.0%" height="158.3%" filterUnits="objectBoundingBox" id="filter-1">
            <feOffset dx="0" dy="0" in="SourceAlpha" result="shadowOffsetOuter1"></feOffset>
            <feGaussianBlur stdDeviation="2.5" in="shadowOffsetOuter1" result="shadowBlurOuter1"></feGaussianBlur>
            <feColorMatrix values="0 0 0 0 0   0 0 0 0 0   0 0 0 0 0  0 0 0 0.15 0" type="matrix" in="shadowBlurOuter1" result="shadowMatrixOuter1"></feColorMatrix>
            <feMerge>
                <feMergeNode in="shadowMatrixOuter1"></feMergeNode>
                <feMergeNode in="SourceGraphic"></feMergeNode>
            </feMerge>
        </filter>
    </defs>
    <g id="页面-1" stroke="none" stroke-width="1" fill="none" fill-rule="evenodd">
        <g id="文本超出、另存为" transform="translate(-460.000000, -774.000000)">
            <g id="编组-4备份-13" transform="translate(100.000000, 150.000000)">
                <g id="编组-9" filter="url(#filter-1)" transform="translate(179.000000, 624.000000)">
                    <g id="编组-4备份-5" transform="translate(181.000000, 0.000000)">
                        <g id="旋转" transform="translate(8.000000, 8.000000)">
                            <rect id="蒙版" x="0" y="0" width="20" height="20"></rect>
                            <path d="M13,6 C13.8284271,6 14.5,6.67157288 14.5,7.5 L14.5,7.5 L14.5,15.5 C14.5,16.3284271 13.8284271,17 13,17 L13,17 L5,17 C4.17157288,17 3.5,16.3284271 3.5,15.5 L3.5,15.5 L3.5,7.5 C3.5,6.67157288 4.17157288,6 5,6 L5,6 Z M13,7 L5,7 C4.72385763,7 4.5,7.22385763 4.5,7.5 L4.5,7.5 L4.5,15.5 C4.5,15.7761424 4.72385763,16 5,16 L5,16 L13,16 C13.2761424,16 13.5,15.7761424 13.5,15.5 L13.5,15.5 L13.5,7.5 C13.5,7.22385763 13.2761424,7 13,7 L13,7 Z M12.1695133,2.2473558 C12.2144161,2.32400973 12.2380852,2.4112431 12.2380852,2.50008053 L12.2385813,3.22245946 C15.1651311,3.34773968 17.4992891,5.75995768 17.4992891,8.71734749 C17.4992891,8.99348986 17.2754315,9.21734749 16.9992891,9.21734749 C16.7231467,9.21734749 16.4992891,8.99348986 16.4992891,8.71734749 C16.4992891,6.31224744 14.612473,4.3478369 12.2383118,4.2235868 L12.2380852,4.93461444 C12.2380852,5.21075682 12.0142276,5.43461444 11.7380852,5.43461444 C11.6492478,5.43461444 11.5620144,5.41094538 11.4853605,5.36604255 L9.4073558,4.14877559 C9.16908464,4.00919958 9.08907641,3.70289392 9.22865243,3.46462276 C9.2719348,3.39073513 9.33346817,3.32920176 9.4073558,3.28591938 L11.4853605,2.06865243 C11.7236316,1.92907641 12.0299373,2.00908464 12.1695133,2.2473558 Z" id="形状结合" fill="#262626" fill-rule="nonzero"></path>
                        </g>
                    </g>
                </g>
            </g>
        </g>
    </g>
</svg>