<?xml version="1.0" encoding="UTF-8"?>
<svg width="24px" height="24px" viewBox="0 0 24 24" version="1.1" xmlns="http://www.w3.org/2000/svg" xmlns:xlink="http://www.w3.org/1999/xlink">
    <title>扫描@2x</title>
    <g id="页面-1" stroke="none" stroke-width="1" fill="none" fill-rule="evenodd">
        <g id="扫描" transform="translate(-414.000000, -458.000000)">
            <g id="编组-24" transform="translate(390.000000, 401.000000)">
                <g id="扫描" transform="translate(24.000000, 57.000000)">
                    <rect id="矩形" x="0" y="0" width="24" height="24"></rect>
                    <path d="M12.0000945,18.0212376 C9.56381377,18.0212376 7.36771113,16.5528624 6.43670738,14.3016231 C5.50570363,12.0503838 6.02333988,9.45998549 7.74803537,7.73936682 L8.79510001,8.78869875 C7.26196509,10.3179629 7.02301332,12.7173378 8.22443391,14.518901 C9.42585449,16.3204641 11.7328663,17.0222018 13.7340538,16.1947954 C15.7352413,15.3673889 16.8729649,13.2413988 16.4511722,11.1174925 C16.0293795,8.99358625 14.1656051,7.46359967 12.0000945,7.46356906 C11.8438133,7.46353917 11.6876303,7.47140108 11.5321422,7.48712474 L11.3815975,6.01256371 C11.5871378,5.99160848 11.7936113,5.9810948 12.0002172,5.9810948 C14.1575651,5.97143962 16.1552051,7.11673277 17.2366812,8.98334189 C18.3181573,10.849951 18.3181338,13.1525096 17.2366197,15.0190967 C16.1551055,16.8856838 14.1574422,18.0309362 12.0000945,18.0212376 Z M12.0000945,22 C7.89249057,22 4.20265059,19.4883558 2.69667466,15.667012 C1.19069874,11.8456683 2.17495758,7.49211577 5.17834684,4.69013312 L6.19007581,5.77381708 C3.19869887,8.56437761 2.61410136,13.0874607 4.7976949,16.5467921 C6.98128845,20.0061236 11.3161415,21.4243372 15.1223481,19.9246606 C18.9285547,18.424984 21.1307457,14.4311215 20.367476,10.4121708 C19.6042063,6.39322009 16.0911227,3.48465696 12.0000945,3.48462212 C10.7965114,3.48176715 9.60620481,3.73604349 8.50885654,4.2304293 L7.90054314,2.87867679 C11.6227148,1.20635852 15.9876664,1.96314399 18.9295374,4.79085899 C21.8714085,7.618574 22.800045,11.9499647 21.2759384,15.7350546 C19.7518319,19.5201446 16.0807257,21.9996256 12.0000945,22 L12.0000945,22 Z" id="形状" fill="#3790FA" fill-rule="nonzero"></path>
                    <polygon id="路径" fill="#F68C27" fill-rule="nonzero" points="10.9107671 13 3 4.05496089 4.08923291 3 12 11.9451678"></polygon>
                </g>
            </g>
        </g>
    </g>
</svg>