<?xml version="1.0" encoding="UTF-8"?>
<svg width="24px" height="24px" viewBox="0 0 24 24" version="1.1" xmlns="http://www.w3.org/2000/svg" xmlns:xlink="http://www.w3.org/1999/xlink">
    <title>icon/warning@2x</title>
    <g id="页面-1" stroke="none" stroke-width="1" fill="none" fill-rule="evenodd">
        <g id="发送至邮箱" transform="translate(-414.000000, -436.000000)">
            <g id="编组-24" transform="translate(390.000000, 380.000000)">
                <g id="icon/warning" transform="translate(24.000000, 56.000000)">
                    <rect id="矩形" x="0" y="0" width="24" height="24"></rect>
                    <path d="M12,2 C14.827381,2.07440476 17.1822917,3.05282738 19.0647321,4.93526786 C20.9471726,6.81770833 21.9255952,9.17261905 22,12 C21.9255952,14.827381 20.9471726,17.1822917 19.0647321,19.0647321 C17.1822917,20.9471726 14.827381,21.9255952 12,22 C9.17261905,21.9255952 6.81770833,20.9471726 4.93526786,19.0647321 C3.05282738,17.1822917 2.07440476,14.827381 2,12 C2.07440476,9.17261905 3.05282738,6.81770833 4.93526786,4.93526786 C6.81770833,3.05282738 9.17261905,2.07440476 12,2 Z M12,6.28571429 C11.6130952,6.28571429 11.2931548,6.42708333 11.0401786,6.70982143 C10.7872024,6.99255952 10.6755952,7.32738095 10.7053571,7.71428571 L11.21875,13.4285714 C11.2485119,13.6369048 11.3340774,13.8043155 11.4754464,13.9308036 C11.6168155,14.0572917 11.7916667,14.1205357 12,14.1205357 C12.2083333,14.1205357 12.3831845,14.0572917 12.5245536,13.9308036 C12.6659226,13.8043155 12.7514881,13.6369048 12.78125,13.4285714 L13.2946429,7.71428571 C13.3244048,7.32738095 13.2127976,6.99255952 12.9598214,6.70982143 C12.7068452,6.42708333 12.3869048,6.28571429 12,6.28571429 Z M12,17.7142857 C12.327381,17.6994048 12.5989583,17.5877976 12.8147321,17.3794643 C13.030506,17.171131 13.1383929,16.9032738 13.1383929,16.5758929 C13.1383929,16.2485119 13.030506,15.9769345 12.8147321,15.7611607 C12.5989583,15.5453869 12.327381,15.4375 12,15.4375 C11.672619,15.4375 11.4010417,15.5453869 11.1852679,15.7611607 C10.969494,15.9769345 10.8616071,16.2485119 10.8616071,16.5758929 C10.8616071,16.9032738 10.969494,17.171131 11.1852679,17.3794643 C11.4010417,17.5877976 11.672619,17.6994048 12,17.7142857 Z" id="形状" fill="#F1A014"></path>
                </g>
            </g>
        </g>
    </g>
</svg>