<?xml version="1.0" encoding="UTF-8"?>
<svg width="36px" height="36px" viewBox="0 0 36 36" version="1.1" xmlns="http://www.w3.org/2000/svg" xmlns:xlink="http://www.w3.org/1999/xlink">
    <title>水印@2x</title>
    <defs>
        <filter x="-2.5%" y="-29.2%" width="105.0%" height="158.3%" filterUnits="objectBoundingBox" id="filter-1">
            <feOffset dx="0" dy="0" in="SourceAlpha" result="shadowOffsetOuter1"></feOffset>
            <feGaussianBlur stdDeviation="2.5" in="shadowOffsetOuter1" result="shadowBlurOuter1"></feGaussianBlur>
            <feColorMatrix values="0 0 0 0 0   0 0 0 0 0   0 0 0 0 0  0 0 0 0.15 0" type="matrix" in="shadowBlurOuter1" result="shadowMatrixOuter1"></feColorMatrix>
            <feMerge>
                <feMergeNode in="shadowMatrixOuter1"></feMergeNode>
                <feMergeNode in="SourceGraphic"></feMergeNode>
            </feMerge>
        </filter>
    </defs>
    <g id="页面-1" stroke="none" stroke-width="1" fill="none" fill-rule="evenodd">
        <g id="文本超出、另存为" transform="translate(-539.000000, -774.000000)">
            <g id="编组-4备份-13" transform="translate(100.000000, 150.000000)">
                <g id="编组-9" filter="url(#filter-1)" transform="translate(179.000000, 624.000000)">
                    <g id="编组-4备份-7" transform="translate(260.000000, 0.000000)">
                        <g id="水印" transform="translate(8.000000, 8.000000)">
                            <rect id="蒙版" x="0" y="0" width="20" height="20"></rect>
                            <path d="M14.5,3 C15.3284271,3 16,3.67157288 16,4.5 L16,4.5 L16,15.5 C16,16.3284271 15.3284271,17 14.5,17 L14.5,17 L5.5,17 C4.67157288,17 4,16.3284271 4,15.5 L4,15.5 L4,4.5 C4,3.67157288 4.67157288,3 5.5,3 L5.5,3 Z M14.5,4 L5.5,4 C5.22385763,4 5,4.22385763 5,4.5 L5,4.5 L5,15.5 C5,15.7761424 5.22385763,16 5.5,16 L5.5,16 L14.5,16 C14.7761424,16 15,15.7761424 15,15.5 L15,15.5 L15,4.5 C15,4.22385763 14.7761424,4 14.5,4 L14.5,4 Z M13.0965374,13.8290281 C13.1680083,14.0957612 13.009717,14.3699297 12.742984,14.4414006 L10.8111323,14.9590387 C10.5443993,15.0305096 10.2702308,14.8722183 10.1987599,14.6054853 C10.127289,14.3387522 10.2855802,14.0645837 10.5523133,13.9931128 L12.4841649,13.4754747 C12.750898,13.4040038 13.0250664,13.5622951 13.0965374,13.8290281 Z M10.0993799,12.3027426 C10.1708508,12.5694757 10.0125596,12.8436442 9.74582655,12.9151151 L7.8139749,13.4327532 C7.54724184,13.5042241 7.27307337,13.3459328 7.20160246,13.0791998 C7.13013155,12.8124667 7.2884228,12.5382982 7.55515585,12.4668273 L9.4870075,11.9491892 C9.75374055,11.8777183 10.027909,12.0360096 10.0993799,12.3027426 Z M13.9630832,11.2674665 C14.0345541,11.5341995 13.8762629,11.808368 13.6095299,11.8798389 L11.6776782,12.397477 C11.4109451,12.4689479 11.1367767,12.3106566 11.0653058,12.0439236 C10.9938349,11.7771905 11.1521261,11.5030221 11.4188592,11.4315512 L13.3507108,10.9139131 C13.6174439,10.8424422 13.8916123,11.0007334 13.9630832,11.2674665 Z M11.9318517,9.48236191 C12.0033226,9.74909496 11.8450313,10.0232634 11.5782983,10.0947343 L8.68052078,10.8711915 C8.41378773,10.9426624 8.13961925,10.7843711 8.06814835,10.5176381 C7.99667744,10.250905 8.15496869,9.97673656 8.42170174,9.90526565 L11.3194792,9.12880852 C11.5862123,9.05733761 11.8603807,9.21562886 11.9318517,9.48236191 Z M8.93469424,7.95607641 C9.00616514,8.22280947 8.8478739,8.49697794 8.58114084,8.56844885 L6.64928919,9.08608694 C6.38255614,9.15755785 6.10838766,8.9992666 6.03691676,8.73253355 C5.96544585,8.4658005 6.1237371,8.19163202 6.39047015,8.12016111 L8.3223218,7.60252302 C8.58905485,7.53105212 8.86322333,7.68934336 8.93469424,7.95607641 Z M12.7983975,6.92080023 C12.8698684,7.18753328 12.7115772,7.46170176 12.4448441,7.53317267 L10.5129925,8.05081076 C10.2462594,8.12228166 9.97209097,7.96399042 9.90062006,7.69725737 C9.82914916,7.43052432 9.9874404,7.15635584 10.2541735,7.08488493 L12.1860251,6.56724684 C12.4527582,6.49577594 12.7269266,6.65406718 12.7983975,6.92080023 Z M9.80124012,5.39451474 C9.87271103,5.66124779 9.71441978,5.93541627 9.44768673,6.00688717 L7.51583508,6.52452526 C7.24910203,6.59599617 6.97493355,6.43770492 6.90346264,6.17097187 C6.83199174,5.90423882 6.99028298,5.63007034 7.25701604,5.55859944 L9.18886769,5.04096135 C9.45560074,4.96949044 9.72976922,5.12778168 9.80124012,5.39451474 Z" id="形状结合" fill="#262626" fill-rule="nonzero"></path>
                        </g>
                    </g>
                </g>
            </g>
        </g>
    </g>
</svg>