<?xml version="1.0" encoding="UTF-8"?>
<svg width="20px" height="20px" viewBox="0 0 20 20" version="1.1" xmlns="http://www.w3.org/2000/svg" xmlns:xlink="http://www.w3.org/1999/xlink">
    <title>放大@2x</title>
    <defs>
        <filter x="-2.5%" y="-29.2%" width="105.0%" height="158.3%" filterUnits="objectBoundingBox" id="filter-1">
            <feOffset dx="0" dy="0" in="SourceAlpha" result="shadowOffsetOuter1"></feOffset>
            <feGaussianBlur stdDeviation="2.5" in="shadowOffsetOuter1" result="shadowBlurOuter1"></feGaussianBlur>
            <feColorMatrix values="0 0 0 0 0   0 0 0 0 0   0 0 0 0 0  0 0 0 0.15 0" type="matrix" in="shadowBlurOuter1" result="shadowMatrixOuter1"></feColorMatrix>
            <feMerge>
                <feMergeNode in="shadowMatrixOuter1"></feMergeNode>
                <feMergeNode in="SourceGraphic"></feMergeNode>
            </feMerge>
        </filter>
    </defs>
    <g id="页面-1" stroke="none" stroke-width="1" fill="none" fill-rule="evenodd">
        <g id="文本超出、另存为" transform="translate(-664.000000, -782.000000)" fill="#262626" fill-rule="nonzero">
            <g id="编组-4备份-13" transform="translate(100.000000, 150.000000)">
                <g id="编组-9" filter="url(#filter-1)" transform="translate(179.000000, 624.000000)">
                    <g id="编组-3" transform="translate(321.000000, 8.000000)">
                        <g id="最小化@icon备份" transform="translate(64.000000, 0.000000)">
                            <path d="M10,5 C10.2761424,5 10.5,5.22385763 10.5,5.5 L10.5,5.5 L10.499,9.5 L14.5,9.5 C14.7454599,9.5 14.9496084,9.67687516 14.9919443,9.91012437 L15,10 C15,10.2761424 14.7761424,10.5 14.5,10.5 L14.5,10.5 L10.499,10.5 L10.5,14.5 C10.5,14.7454599 10.3231248,14.9496084 10.0898756,14.9919443 L10,15 C9.72385763,15 9.5,14.7761424 9.5,14.5 L9.5,14.5 L9.499,10.5 L5.5,10.5 C5.25454011,10.5 5.05039163,10.3231248 5.00805567,10.0898756 L5,10 C5,9.72385763 5.22385763,9.5 5.5,9.5 L5.5,9.5 L9.499,9.5 L9.5,5.5 C9.5,5.25454011 9.67687516,5.05039163 9.91012437,5.00805567 Z" id="放大"></path>
                        </g>
                    </g>
                </g>
            </g>
        </g>
    </g>
</svg>